<svg width="19" height="19" viewBox="0 0 19 19" fill="none" xmlns="http://www.w3.org/2000/svg">
<g clip-path="url(#clip0_1_298)">
<path d="M11.2621 1.77823C11.2621 1.30661 11.0748 0.854314 10.7413 0.520831C10.4078 0.187349 9.9555 0 9.48389 0C9.01227 0 8.55997 0.187349 8.22649 0.520831C7.89301 0.854314 7.70566 1.30661 7.70566 1.77823C7.70566 2.24984 7.89301 2.70214 8.22649 3.03563C8.55997 3.36911 9.01227 3.55646 9.48389 3.55646C9.9555 3.55646 10.4078 3.36911 10.7413 3.03563C11.0748 2.70214 11.2621 2.24984 11.2621 1.77823ZM11.2621 17.1895C11.2621 16.7179 11.0748 16.2656 10.7413 15.9321C10.4078 15.5987 9.9555 15.4113 9.48389 15.4113C9.01227 15.4113 8.55997 15.5987 8.22649 15.9321C7.89301 16.2656 7.70566 16.7179 7.70566 17.1895C7.70566 17.6612 7.89301 18.1135 8.22649 18.4469C8.55997 18.7804 9.01227 18.9678 9.48389 18.9678C9.9555 18.9678 10.4078 18.7804 10.7413 18.4469C11.0748 18.1135 11.2621 17.6612 11.2621 17.1895ZM1.77823 11.2621C2.24984 11.2621 2.70214 11.0748 3.03563 10.7413C3.36911 10.4078 3.55646 9.9555 3.55646 9.48389C3.55646 9.01227 3.36911 8.55997 3.03563 8.22649C2.70214 7.89301 2.24984 7.70566 1.77823 7.70566C1.30661 7.70566 0.854314 7.89301 0.520831 8.22649C0.187349 8.55997 0 9.01227 0 9.48389C0 9.9555 0.187349 10.4078 0.520831 10.7413C0.854314 11.0748 1.30661 11.2621 1.77823 11.2621ZM18.9678 9.48389C18.9678 9.01227 18.7804 8.55997 18.4469 8.22649C18.1135 7.89301 17.6612 7.70566 17.1895 7.70566C16.7179 7.70566 16.2656 7.89301 15.9321 8.22649C15.5987 8.55997 15.4113 9.01227 15.4113 9.48389C15.4113 9.9555 15.5987 10.4078 15.9321 10.7413C16.2656 11.0748 16.7179 11.2621 17.1895 11.2621C17.6612 11.2621 18.1135 11.0748 18.4469 10.7413C18.7804 10.4078 18.9678 9.9555 18.9678 9.48389ZM5.29393 16.1893C5.4591 16.0241 5.59012 15.828 5.67951 15.6122C5.7689 15.3964 5.8149 15.1651 5.8149 14.9316C5.8149 14.698 5.7689 14.4667 5.67951 14.2509C5.59012 14.0351 5.4591 13.839 5.29393 13.6738C5.12877 13.5087 4.93269 13.3777 4.71689 13.2883C4.50108 13.1989 4.26979 13.1529 4.03621 13.1529C3.56447 13.1529 3.11205 13.3403 2.77848 13.6738C2.44491 14.0074 2.25752 14.4598 2.25752 14.9316C2.25752 15.4033 2.44491 15.8557 2.77848 16.1893C3.11205 16.5229 3.56447 16.7103 4.03621 16.7103C4.50795 16.7103 4.96037 16.5229 5.29393 16.1893ZM5.29393 5.29023C5.46731 5.12699 5.60613 4.93058 5.70216 4.71267C5.79819 4.49476 5.84947 4.25978 5.85296 4.02167C5.85646 3.78357 5.81209 3.54718 5.7225 3.32655C5.6329 3.10591 5.4999 2.90552 5.3314 2.73726C5.16289 2.569 4.9623 2.4363 4.74153 2.34703C4.52076 2.25776 4.28432 2.21374 4.04621 2.21759C3.80811 2.22143 3.57321 2.27306 3.35544 2.36941C3.13767 2.46576 2.94147 2.60487 2.77848 2.77848C2.44491 3.11205 2.25752 3.56447 2.25752 4.03621C2.25752 4.50795 2.44491 4.96037 2.77848 5.29393C3.11205 5.6275 3.56447 5.8149 4.03621 5.8149C4.50795 5.8149 4.96037 5.6275 5.29393 5.29393V5.29023ZM13.6738 16.1893C13.839 16.3545 14.0351 16.4855 14.2509 16.5749C14.4667 16.6643 14.698 16.7103 14.9316 16.7103C15.1651 16.7103 15.3964 16.6643 15.6122 16.5749C15.828 16.4855 16.0241 16.3545 16.1893 16.1893C16.3545 16.0241 16.4855 15.828 16.5749 15.6122C16.6643 15.3964 16.7103 15.1651 16.7103 14.9316C16.7103 14.698 16.6643 14.4667 16.5749 14.2509C16.4855 14.0351 16.3545 13.839 16.1893 13.6738C16.0241 13.5087 15.828 13.3777 15.6122 13.2883C15.3964 13.1989 15.1651 13.1529 14.9316 13.1529C14.698 13.1529 14.4667 13.1989 14.2509 13.2883C14.0351 13.3777 13.839 13.5087 13.6738 13.6738C13.5087 13.839 13.3777 14.0351 13.2883 14.2509C13.1989 14.4667 13.1529 14.698 13.1529 14.9316C13.1529 15.1651 13.1989 15.3964 13.2883 15.6122C13.3777 15.828 13.5087 16.0241 13.6738 16.1893Z" fill="white"/>
</g>
<defs>
<clipPath id="clip0_1_298">
<path d="M0 0H18.9678V18.9678H0V0Z" fill="white"/>
</clipPath>
</defs>
</svg>
