<svg width="82" height="82" viewBox="0 0 82 82" fill="none" xmlns="http://www.w3.org/2000/svg">
<path d="M81.45 40.725C81.45 40.8682 81.45 41.0113 81.45 41.1545C81.3864 46.961 76.1048 50.9062 70.2983 50.9062H54.7242C50.5085 50.9062 47.0883 54.3265 47.0883 58.5422C47.0883 59.0831 47.1519 59.608 47.2474 60.1171C47.5814 61.7397 48.2814 63.2987 48.9654 64.8736C49.9358 67.069 50.8903 69.2484 50.8903 71.5551C50.8903 76.6139 47.4542 81.2114 42.3954 81.4182C41.8386 81.4341 41.2818 81.45 40.7091 81.45C18.2308 81.45 0 63.2192 0 40.725C0 18.2308 18.2308 0 40.725 0C63.2192 0 81.45 18.2308 81.45 40.725ZM20.3625 45.8156C20.3625 44.4655 19.8262 43.1707 18.8715 42.216C17.9168 41.2613 16.622 40.725 15.2719 40.725C13.9218 40.725 12.6269 41.2613 11.6723 42.216C10.7176 43.1707 10.1812 44.4655 10.1812 45.8156C10.1812 47.1657 10.7176 48.4606 11.6723 49.4152C12.6269 50.3699 13.9218 50.9062 15.2719 50.9062C16.622 50.9062 17.9168 50.3699 18.8715 49.4152C19.8262 48.4606 20.3625 47.1657 20.3625 45.8156ZM20.3625 30.5437C21.7126 30.5437 23.0074 30.0074 23.9621 29.0527C24.9168 28.0981 25.4531 26.8032 25.4531 25.4531C25.4531 24.103 24.9168 22.8082 23.9621 21.8535C23.0074 20.8988 21.7126 20.3625 20.3625 20.3625C19.0124 20.3625 17.7176 20.8988 16.7629 21.8535C15.8082 22.8082 15.2719 24.103 15.2719 25.4531C15.2719 26.8032 15.8082 28.0981 16.7629 29.0527C17.7176 30.0074 19.0124 30.5437 20.3625 30.5437ZM45.8156 15.2719C45.8156 13.9218 45.2793 12.6269 44.3246 11.6723C43.3699 10.7176 42.0751 10.1812 40.725 10.1812C39.3749 10.1812 38.0801 10.7176 37.1254 11.6723C36.1707 12.6269 35.6344 13.9218 35.6344 15.2719C35.6344 16.622 36.1707 17.9168 37.1254 18.8715C38.0801 19.8262 39.3749 20.3625 40.725 20.3625C42.0751 20.3625 43.3699 19.8262 44.3246 18.8715C45.2793 17.9168 45.8156 16.622 45.8156 15.2719ZM61.0875 30.5437C62.4376 30.5437 63.7324 30.0074 64.6871 29.0527C65.6418 28.0981 66.1781 26.8032 66.1781 25.4531C66.1781 24.103 65.6418 22.8082 64.6871 21.8535C63.7324 20.8988 62.4376 20.3625 61.0875 20.3625C59.7374 20.3625 58.4426 20.8988 57.4879 21.8535C56.5332 22.8082 55.9969 24.103 55.9969 25.4531C55.9969 26.8032 56.5332 28.0981 57.4879 29.0527C58.4426 30.0074 59.7374 30.5437 61.0875 30.5437Z" fill="#06B6D4"/>
</svg>
