<svg width="92" height="82" viewBox="0 0 92 82" fill="none" xmlns="http://www.w3.org/2000/svg">
<path d="M37.1975 7.2177L31.2224 9.4524C30.747 9.62674 30.43 10.0864 30.43 10.5935C30.43 11.1007 30.747 11.5603 31.2224 11.7347L37.1975 13.9694L39.4322 19.9444C39.6065 20.4199 40.0662 20.7369 40.5733 20.7369C41.0805 20.7369 41.5401 20.4199 41.7145 19.9444L43.9492 13.9694L49.9242 11.7347C50.3997 11.5603 50.7167 11.1007 50.7167 10.5935C50.7167 10.0864 50.3997 9.62674 49.9242 9.4524L43.9492 7.2177L41.7145 1.24264C41.5401 0.767174 41.0805 0.450195 40.5733 0.450195C40.0662 0.450195 39.6065 0.767174 39.4322 1.24264L37.1975 7.2177ZM7.30637 63.117C4.34261 66.0807 4.34261 70.8988 7.30637 73.8784L12.7901 79.3622C15.7539 82.3259 20.5719 82.3259 23.5516 79.3622L83.9836 18.9142C86.9474 15.9505 86.9474 11.1324 83.9836 8.15279L78.4999 2.6849C75.5361 -0.278857 70.718 -0.278857 67.7384 2.6849L7.30637 63.117ZM76.8041 13.5414L60.1626 30.1828L56.4698 26.49L73.1112 9.84863L76.8041 13.5414ZM1.18867 19.0252C0.475469 19.2946 0 19.9761 0 20.7369C0 21.4976 0.475469 22.1791 1.18867 22.4485L10.1433 25.8085L13.5033 34.7632C13.7727 35.4764 14.4543 35.9519 15.215 35.9519C15.9757 35.9519 16.6573 35.4764 16.9267 34.7632L20.2867 25.8085L29.2413 22.4485C29.9545 22.1791 30.43 21.4976 30.43 20.7369C30.43 19.9761 29.9545 19.2946 29.2413 19.0252L20.2867 15.6652L16.9267 6.71053C16.6573 5.99733 15.9757 5.52186 15.215 5.52186C14.4543 5.52186 13.7727 5.99733 13.5033 6.71053L10.1433 15.6652L1.18867 19.0252ZM56.977 59.5985C56.2638 59.8679 55.7883 60.5494 55.7883 61.3102C55.7883 62.0709 56.2638 62.7524 56.977 63.0219L65.9317 66.3819L69.2916 75.3365C69.5611 76.0497 70.2426 76.5252 71.0033 76.5252C71.7641 76.5252 72.4456 76.0497 72.715 75.3365L76.075 66.3819L85.0297 63.0219C85.7429 62.7524 86.2183 62.0709 86.2183 61.3102C86.2183 60.5494 85.7429 59.8679 85.0297 59.5985L76.075 56.2385L72.715 47.2839C72.4456 46.5707 71.7641 46.0952 71.0033 46.0952C70.2426 46.0952 69.5611 46.5707 69.2916 47.2839L65.9317 56.2385L56.977 59.5985Z" fill="#EC4899"/>
</svg>
