<svg width="81" height="82" viewBox="0 0 81 82" fill="none" xmlns="http://www.w3.org/2000/svg">
<path d="M24.5024 61.1233L19.6676 56.2885C18.3377 54.9586 17.8683 53.0341 18.4628 51.2504C18.9322 49.8578 19.5581 48.0428 20.3091 45.9619H3.75514C2.40954 45.9619 1.15782 45.2421 0.485023 44.0686C-0.187776 42.8952 -0.172129 41.4557 0.516316 40.2978L8.73072 26.4507C10.7648 23.0241 14.4417 20.9275 18.4159 20.9275H31.293C31.6685 20.3016 32.044 19.7227 32.4195 19.1594C45.234 0.258479 64.3227 -0.367378 75.7133 1.72925C77.5283 2.05783 78.9365 3.48166 79.2807 5.29665C81.3773 16.7029 80.7358 35.776 61.8505 48.5905C61.3029 48.966 60.7083 49.3415 60.0825 49.717V62.5941C60.0825 66.5683 57.9859 70.2609 54.5593 72.2793L40.7121 80.4937C39.5543 81.1821 38.1148 81.1977 36.9413 80.5249C35.7678 79.8521 35.0481 78.6161 35.0481 77.2548V60.4818C32.842 61.2485 30.9174 61.8743 29.4623 62.3437C27.7099 62.907 25.801 62.422 24.4867 61.1233H24.5024ZM60.0825 27.1861C61.7424 27.1861 63.3343 26.5267 64.508 25.353C65.6817 24.1793 66.3411 22.5874 66.3411 20.9275C66.3411 19.2676 65.6817 17.6757 64.508 16.502C63.3343 15.3283 61.7424 14.6689 60.0825 14.6689C58.4226 14.6689 56.8307 15.3283 55.657 16.502C54.4833 17.6757 53.8239 19.2676 53.8239 20.9275C53.8239 22.5874 54.4833 24.1793 55.657 25.353C56.8307 26.5267 58.4226 27.1861 60.0825 27.1861Z" fill="#EAB308"/>
</svg>
