<svg width="27" height="31" viewBox="0 0 27 31" fill="none" xmlns="http://www.w3.org/2000/svg">
<path d="M13.1309 8.96191C9.4043 8.96191 6.39844 11.9678 6.39844 15.6943C6.39844 19.4209 9.4043 22.4268 13.1309 22.4268C16.8574 22.4268 19.8633 19.4209 19.8633 15.6943C19.8633 11.9678 16.8574 8.96191 13.1309 8.96191ZM13.1309 20.0713C10.7227 20.0713 8.75391 18.1084 8.75391 15.6943C8.75391 13.2803 10.7168 11.3174 13.1309 11.3174C15.5449 11.3174 17.5078 13.2803 17.5078 15.6943C17.5078 18.1084 15.5391 20.0713 13.1309 20.0713ZM21.709 8.68652C21.709 9.55957 21.0059 10.2568 20.1387 10.2568C19.2656 10.2568 18.5684 9.55371 18.5684 8.68652C18.5684 7.81934 19.2715 7.11621 20.1387 7.11621C21.0059 7.11621 21.709 7.81934 21.709 8.68652ZM26.168 10.2803C26.0684 8.17676 25.5879 6.31348 24.0469 4.77832C22.5117 3.24316 20.6484 2.7627 18.5449 2.65723C16.377 2.53418 9.87891 2.53418 7.71094 2.65723C5.61328 2.75684 3.75 3.2373 2.20898 4.77246C0.667969 6.30762 0.193359 8.1709 0.0878906 10.2744C-0.0351562 12.4424 -0.0351562 18.9404 0.0878906 21.1084C0.1875 23.2119 0.667969 25.0752 2.20898 26.6104C3.75 28.1455 5.60742 28.626 7.71094 28.7314C9.87891 28.8545 16.377 28.8545 18.5449 28.7314C20.6484 28.6318 22.5117 28.1514 24.0469 26.6104C25.582 25.0752 26.0625 23.2119 26.168 21.1084C26.291 18.9404 26.291 12.4482 26.168 10.2803ZM23.3672 23.4346C22.9102 24.583 22.0254 25.4678 20.8711 25.9307C19.1426 26.6162 15.041 26.458 13.1309 26.458C11.2207 26.458 7.11328 26.6104 5.39062 25.9307C4.24219 25.4736 3.35742 24.5889 2.89453 23.4346C2.20898 21.7061 2.36719 17.6045 2.36719 15.6943C2.36719 13.7842 2.21484 9.67676 2.89453 7.9541C3.35156 6.80566 4.23633 5.9209 5.39062 5.45801C7.11914 4.77246 11.2207 4.93066 13.1309 4.93066C15.041 4.93066 19.1484 4.77832 20.8711 5.45801C22.0195 5.91504 22.9043 6.7998 23.3672 7.9541C24.0527 9.68262 23.8945 13.7842 23.8945 15.6943C23.8945 17.6045 24.0527 21.7119 23.3672 23.4346Z" fill="white"/>
</svg>
