<svg width="30" height="31" viewBox="0 0 30 31" fill="none" xmlns="http://www.w3.org/2000/svg">
<path d="M26.9162 9.48979C26.9353 9.75627 26.9353 10.0228 26.9353 10.2893C26.9353 18.4174 20.7488 27.7829 9.44162 27.7829C5.95811 27.7829 2.72209 26.774 0 25.0228C0.494941 25.0799 0.970781 25.0989 1.48477 25.0989C4.35908 25.0989 7.00506 24.1281 9.11801 22.472C6.41496 22.4149 4.14973 20.6446 3.36926 18.2081C3.75 18.2651 4.13068 18.3032 4.53047 18.3032C5.08248 18.3032 5.63455 18.227 6.14848 18.0939C3.33123 17.5228 1.21822 15.0482 1.21822 12.0596V11.9835C2.03672 12.4403 2.98857 12.7259 3.99738 12.7639C2.34129 11.6598 1.25631 9.77531 1.25631 7.64332C1.25631 6.50121 1.56082 5.45426 2.09385 4.54055C5.12051 8.2715 9.67002 10.708 14.7715 10.9746C14.6763 10.5177 14.6192 10.0419 14.6192 9.56596C14.6192 6.1776 17.3603 3.41748 20.7677 3.41748C22.538 3.41748 24.1369 4.15986 25.2601 5.3591C26.6496 5.09262 27.9821 4.57863 29.1623 3.87434C28.7054 5.30203 27.7346 6.50127 26.4593 7.26264C27.6966 7.12945 28.8959 6.78674 29.9999 6.3109C29.1625 7.52912 28.1154 8.6141 26.9162 9.48979Z" fill="white"/>
</svg>
