<svg width="27" height="31" viewBox="0 0 27 31" fill="none" xmlns="http://www.w3.org/2000/svg">
<path d="M24.375 2.375H1.86914C0.837891 2.375 0 3.22461 0 4.26758V26.7324C0 27.7754 0.837891 28.625 1.86914 28.625H24.375C25.4062 28.625 26.25 27.7754 26.25 26.7324V4.26758C26.25 3.22461 25.4062 2.375 24.375 2.375ZM7.93359 24.875H4.04297V12.3477H7.93945V24.875H7.93359ZM5.98828 10.6367C4.74023 10.6367 3.73242 9.62305 3.73242 8.38086C3.73242 7.13867 4.74023 6.125 5.98828 6.125C7.23047 6.125 8.24414 7.13867 8.24414 8.38086C8.24414 9.62891 7.23633 10.6367 5.98828 10.6367ZM22.5176 24.875H18.627V18.7812C18.627 17.3281 18.5977 15.459 16.6055 15.459C14.5781 15.459 14.2676 17.041 14.2676 18.6758V24.875H10.377V12.3477H14.1094V14.0586H14.1621C14.6836 13.0742 15.9551 12.0371 17.8477 12.0371C21.7852 12.0371 22.5176 14.6328 22.5176 18.0078V24.875Z" fill="white"/>
</svg>
