<svg width="14" height="16" viewBox="0 0 14 16" fill="none" xmlns="http://www.w3.org/2000/svg">
<path d="M10.9188 1.39379C11.1032 0.965664 10.9657 0.465664 10.5876 0.190664C10.2094 -0.0843364 9.69382 -0.0593364 9.3407 0.246914L1.3407 7.24691C1.0282 7.52191 0.9157 7.96254 1.06257 8.35004C1.20945 8.73754 1.58445 9.00004 2.00007 9.00004H5.48445L3.08132 14.6063C2.89695 15.0344 3.03445 15.5344 3.41257 15.8094C3.7907 16.0844 4.30632 16.0594 4.65945 15.7532L12.6594 8.75316C12.9719 8.47816 13.0844 8.03754 12.9376 7.65004C12.7907 7.26254 12.4188 7.00316 12.0001 7.00316H8.5157L10.9188 1.39379Z" fill="#6366F1"/>
</svg>
