<svg width="14" height="18" viewBox="0 0 14 18" fill="none" xmlns="http://www.w3.org/2000/svg">
<path d="M12.0445 5.29448C12.4839 4.85503 12.4839 4.14136 12.0445 3.7019C11.605 3.26245 10.8914 3.26245 10.4519 3.7019L6.74995 7.40737L3.04448 3.70542C2.60503 3.26597 1.89136 3.26597 1.4519 3.70542C1.01245 4.14487 1.01245 4.85854 1.4519 5.298L5.15737 8.99995L1.45542 12.7054C1.01597 13.1449 1.01597 13.8585 1.45542 14.298C1.89487 14.7375 2.60854 14.7375 3.048 14.298L6.74995 10.5925L10.4554 14.2945C10.8949 14.7339 11.6085 14.7339 12.048 14.2945C12.4875 13.855 12.4875 13.1414 12.048 12.7019L8.34253 8.99995L12.0445 5.29448Z" fill="#EF4444"/>
</svg>
