<svg width="20" height="20" viewBox="0 0 20 20" fill="none" xmlns="http://www.w3.org/2000/svg">
<path d="M1.25 2.5C1.25 1.12109 2.37109 0 3.75 0H10C11.3789 0 12.5 1.12109 12.5 2.5V10H12.8125C14.7109 10 16.25 11.5391 16.25 13.4375V14.6875C16.25 15.207 16.668 15.625 17.1875 15.625C17.707 15.625 18.125 15.207 18.125 14.6875V8.67188C17.0469 8.39453 16.25 7.41406 16.25 6.25V3.75L15 2.5C14.6562 2.15625 14.6562 1.59375 15 1.25C15.3438 0.90625 15.9062 0.90625 16.25 1.25L19.2695 4.26953C19.7383 4.73828 20 5.375 20 6.03906V6.5625V7.5V8.75V14.6875C20 16.2422 18.7422 17.5 17.1875 17.5C15.6328 17.5 14.375 16.2422 14.375 14.6875V13.4375C14.375 12.5742 13.6758 11.875 12.8125 11.875H12.5V17.5C13.1914 17.5 13.75 18.0586 13.75 18.75C13.75 19.4414 13.1914 20 12.5 20H1.25C0.558594 20 0 19.4414 0 18.75C0 18.0586 0.558594 17.5 1.25 17.5V2.5ZM3.75 3.125V6.875C3.75 7.21875 4.03125 7.5 4.375 7.5H9.375C9.71875 7.5 10 7.21875 10 6.875V3.125C10 2.78125 9.71875 2.5 9.375 2.5H4.375C4.03125 2.5 3.75 2.78125 3.75 3.125Z" fill="#16A34A"/>
</svg>
