<svg width="17" height="14" viewBox="0 0 17 14" fill="none" xmlns="http://www.w3.org/2000/svg">
<path d="M1.75752 8.38742L7.40439 13.6593C7.63877 13.878 7.94814 13.9999 8.27002 13.9999C8.59189 13.9999 8.90127 13.878 9.13564 13.6593L14.7825 8.38742C15.7325 7.50305 16.27 6.26242 16.27 4.96555V4.7843C16.27 2.59992 14.6919 0.737423 12.5388 0.378048C11.1138 0.140548 9.66377 0.606173 8.64502 1.62492L8.27002 1.99992L7.89502 1.62492C6.87627 0.606173 5.42627 0.140548 4.00127 0.378048C1.84814 0.737423 0.27002 2.59992 0.27002 4.7843V4.96555C0.27002 6.26242 0.807519 7.50305 1.75752 8.38742Z" fill="black"/>
</svg>
