<svg width="13" height="16" viewBox="0 0 13 16" fill="none" xmlns="http://www.w3.org/2000/svg">
<path d="M0.830078 2C0.830078 0.896875 1.72695 0 2.83008 0H9.83008C10.9332 0 11.8301 0.896875 11.8301 2V14C11.8301 15.1031 10.9332 16 9.83008 16H2.83008C1.72695 16 0.830078 15.1031 0.830078 14V2ZM7.33008 14C7.33008 13.7348 7.22472 13.4804 7.03718 13.2929C6.84965 13.1054 6.59529 13 6.33008 13C6.06486 13 5.81051 13.1054 5.62297 13.2929C5.43544 13.4804 5.33008 13.7348 5.33008 14C5.33008 14.2652 5.43544 14.5196 5.62297 14.7071C5.81051 14.8946 6.06486 15 6.33008 15C6.59529 15 6.84965 14.8946 7.03718 14.7071C7.22472 14.5196 7.33008 14.2652 7.33008 14ZM9.83008 2H2.83008V12H9.83008V2Z" fill="#2563EB"/>
</svg>
