<svg width="17" height="16" viewBox="0 0 17 16" fill="none" xmlns="http://www.w3.org/2000/svg">
<path d="M9.95374 1.0874C9.59436 1.24677 9.35999 1.60615 9.35999 1.9999V3.9999H5.85999C2.82249 3.9999 0.359985 6.4624 0.359985 9.4999C0.359985 13.0405 2.90686 14.6218 3.49124 14.9405C3.56936 14.9843 3.65686 14.9999 3.74436 14.9999C4.08499 14.9999 4.35999 14.7218 4.35999 14.3843C4.35999 14.1499 4.22561 13.9343 4.05374 13.7749C3.75999 13.4968 3.35999 12.9499 3.35999 11.9999C3.35999 10.3436 4.70374 8.9999 6.35999 8.9999H9.35999V10.9999C9.35999 11.3936 9.59124 11.753 9.95374 11.9124C10.3162 12.0718 10.735 12.0061 11.0287 11.7436L16.0287 7.24365C16.2381 7.05302 16.36 6.78427 16.36 6.4999C16.36 6.21552 16.2412 5.94677 16.0287 5.75615L11.0287 1.25615C10.735 0.990522 10.3131 0.924897 9.95374 1.0874Z" fill="black"/>
</svg>
