<svg width="21" height="16" viewBox="0 0 21 16" fill="none" xmlns="http://www.w3.org/2000/svg">
<path d="M2.65991 5C2.65991 2.79063 4.45054 1 6.65991 1H14.6599C16.8693 1 18.6599 2.79063 18.6599 5V6.05C17.5193 6.28125 16.6599 7.29063 16.6599 8.5V10H4.65991V8.5C4.65991 7.29063 3.80054 6.28125 2.65991 6.05V5ZM17.6599 8.5C17.6599 7.84688 18.0787 7.29063 18.6599 7.08437C18.8162 7.02812 18.9849 7 19.1599 7C19.988 7 20.6599 7.67188 20.6599 8.5V14C20.6599 14.5531 20.213 15 19.6599 15H18.6599C18.1068 15 17.6599 14.5531 17.6599 14H3.65991C3.65991 14.5531 3.21304 15 2.65991 15H1.65991C1.10679 15 0.659912 14.5531 0.659912 14V8.5C0.659912 7.67188 1.33179 7 2.15991 7C2.33491 7 2.50366 7.03125 2.65991 7.08437C3.24116 7.29063 3.65991 7.84688 3.65991 8.5V10V11H4.65991H16.6599H17.6599V10V8.5Z" fill="#EA580C"/>
</svg>
