<svg width="17" height="18" viewBox="0 0 17 18" fill="none" xmlns="http://www.w3.org/2000/svg">
<path d="M4.35498 1.125V2.25H2.66748C1.73584 2.25 0.97998 3.00586 0.97998 3.9375V5.625H16.73V3.9375C16.73 3.00586 15.9741 2.25 15.0425 2.25H13.355V1.125C13.355 0.502734 12.8522 0 12.23 0C11.6077 0 11.105 0.502734 11.105 1.125V2.25H6.60498V1.125C6.60498 0.502734 6.10225 0 5.47998 0C4.85771 0 4.35498 0.502734 4.35498 1.125ZM16.73 6.75H0.97998V16.3125C0.97998 17.2441 1.73584 18 2.66748 18H15.0425C15.9741 18 16.73 17.2441 16.73 16.3125V6.75Z" fill="#3B82F6"/>
</svg>
