<svg width="21" height="19" viewBox="0 0 21 19" fill="none" xmlns="http://www.w3.org/2000/svg">
<path d="M0.860107 1.34375C0.860107 0.876172 1.23628 0.5 1.70386 0.5H3.30347C4.0769 0.5 4.76245 0.95 5.08237 1.625H19.5316C20.4562 1.625 21.1312 2.50391 20.8886 3.39688L19.4472 8.75117C19.1484 9.85508 18.1464 10.625 17.0039 10.625H6.86128L7.05112 11.627C7.12847 12.0242 7.47651 12.3125 7.88081 12.3125H18.0164C18.4839 12.3125 18.8601 12.6887 18.8601 13.1562C18.8601 13.6238 18.4839 14 18.0164 14H7.88081C6.6644 14 5.62026 13.1352 5.39526 11.9434L3.5812 2.41602C3.55659 2.28242 3.44058 2.1875 3.30347 2.1875H1.70386C1.23628 2.1875 0.860107 1.81133 0.860107 1.34375ZM5.36011 16.8125C5.36011 16.5909 5.40376 16.3715 5.48856 16.1667C5.57337 15.962 5.69767 15.776 5.85436 15.6193C6.01106 15.4626 6.19709 15.3383 6.40183 15.2535C6.60657 15.1686 6.826 15.125 7.04761 15.125C7.26921 15.125 7.48865 15.1686 7.69339 15.2535C7.89812 15.3383 8.08415 15.4626 8.24085 15.6193C8.39755 15.776 8.52185 15.962 8.60665 16.1667C8.69146 16.3715 8.73511 16.5909 8.73511 16.8125C8.73511 17.0341 8.69146 17.2535 8.60665 17.4583C8.52185 17.663 8.39755 17.849 8.24085 18.0057C8.08415 18.1624 7.89812 18.2867 7.69339 18.3715C7.48865 18.4564 7.26921 18.5 7.04761 18.5C6.826 18.5 6.60657 18.4564 6.40183 18.3715C6.19709 18.2867 6.01106 18.1624 5.85436 18.0057C5.69767 17.849 5.57337 17.663 5.48856 17.4583C5.40376 17.2535 5.36011 17.0341 5.36011 16.8125ZM17.1726 15.125C17.6202 15.125 18.0494 15.3028 18.3659 15.6193C18.6823 15.9357 18.8601 16.3649 18.8601 16.8125C18.8601 17.2601 18.6823 17.6893 18.3659 18.0057C18.0494 18.3222 17.6202 18.5 17.1726 18.5C16.7251 18.5 16.2958 18.3222 15.9794 18.0057C15.6629 17.6893 15.4851 17.2601 15.4851 16.8125C15.4851 16.3649 15.6629 15.9357 15.9794 15.6193C16.2958 15.3028 16.7251 15.125 17.1726 15.125Z" fill="white"/>
</svg>
