<svg width="21" height="12" viewBox="0 0 21 12" fill="none" xmlns="http://www.w3.org/2000/svg">
<path d="M3.16158 11.5938C2.57824 11.5938 2.05291 11.4778 1.58558 11.2458C1.11825 11.0138 0.743726 10.6956 0.462003 10.2912C0.180279 9.88688 0.02616 9.42618 -0.000355095 8.90914H1.19283C1.23923 9.36984 1.44804 9.75099 1.81925 10.0526C2.19377 10.3509 2.64122 10.5 3.16158 10.5C3.57919 10.5 3.9504 10.4023 4.27521 10.2067C4.60334 10.0112 4.8602 9.74271 5.04581 9.40132C5.23473 9.05663 5.32919 8.66718 5.32919 8.233C5.32919 7.78887 5.23142 7.3928 5.03587 7.04479C4.84363 6.69346 4.57848 6.41671 4.24041 6.21453C3.90234 6.01235 3.51622 5.90961 3.08203 5.90629C2.77048 5.90298 2.45064 5.95104 2.12251 6.05047C1.79439 6.14659 1.52427 6.27088 1.31214 6.42334L0.158736 6.28414L0.775213 1.27277H6.06499V2.36652H1.8093L1.45135 5.36936H1.51101C1.71982 5.20364 1.98165 5.0661 2.29652 4.95672C2.61139 4.84735 2.93951 4.79266 3.2809 4.79266C3.904 4.79266 4.45916 4.94181 4.94638 5.2401C5.43691 5.53508 5.82138 5.93944 6.09979 6.45317C6.38151 6.9669 6.52237 7.55355 6.52237 8.21311C6.52237 8.86273 6.37654 9.44275 6.08487 9.95317C5.79652 10.4603 5.39879 10.8613 4.89169 11.1563C4.38459 11.448 3.80788 11.5938 3.16158 11.5938ZM14.7615 8.83953L11.003 11.554L12.4846 7.13925L8.71609 4.41482H13.3297L14.7615 4.36306e-05L16.1934 4.41482H20.807L17.0385 7.13925L18.5201 11.554L14.7615 8.83953Z" fill="black"/>
</svg>
