<svg width="16" height="20" viewBox="0 0 16 20" fill="none" xmlns="http://www.w3.org/2000/svg">
<path d="M1.4875 11.3875L7.13438 16.6594C7.36875 16.8781 7.67812 17 8 17C8.32187 17 8.63125 16.8781 8.86563 16.6594L14.5125 11.3875C15.4625 10.5031 16 9.26248 16 7.96561V7.78436C16 5.59998 14.4219 3.73748 12.2688 3.37811C10.8438 3.14061 9.39375 3.60623 8.375 4.62498L8 4.99998L7.625 4.62498C6.60625 3.60623 5.15625 3.14061 3.73125 3.37811C1.57812 3.73748 0 5.59998 0 7.78436V7.96561C0 9.26248 0.5375 10.5031 1.4875 11.3875Z" fill="#8B4513"/>
</svg>
