<svg width="18" height="20" viewBox="0 0 18 20" fill="none" xmlns="http://www.w3.org/2000/svg">
<g clip-path="url(#clip0_1_110)">
<path d="M2.5 1.25C1.12109 1.25 0 2.37109 0 3.75V16.25C0 17.6289 1.12109 18.75 2.5 18.75H15C16.3789 18.75 17.5 17.6289 17.5 16.25V6.76953C17.5 6.10547 17.2383 5.46875 16.7695 5L13.75 1.98047C13.2812 1.51172 12.6445 1.25 11.9805 1.25H2.5ZM2.5 5C2.5 4.30859 3.05859 3.75 3.75 3.75H11.25C11.9414 3.75 12.5 4.30859 12.5 5V7.5C12.5 8.19141 11.9414 8.75 11.25 8.75H3.75C3.05859 8.75 2.5 8.19141 2.5 7.5V5ZM8.75 11.25C9.41304 11.25 10.0489 11.5134 10.5178 11.9822C10.9866 12.4511 11.25 13.087 11.25 13.75C11.25 14.413 10.9866 15.0489 10.5178 15.5178C10.0489 15.9866 9.41304 16.25 8.75 16.25C8.08696 16.25 7.45107 15.9866 6.98223 15.5178C6.51339 15.0489 6.25 14.413 6.25 13.75C6.25 13.087 6.51339 12.4511 6.98223 11.9822C7.45107 11.5134 8.08696 11.25 8.75 11.25Z" fill="white"/>
</g>
<defs>
<clipPath id="clip0_1_110">
<path d="M0 0H17.5V20H0V0Z" fill="white"/>
</clipPath>
</defs>
</svg>
