<svg width="21" height="24" viewBox="0 0 21 24" fill="none" xmlns="http://www.w3.org/2000/svg">
<g clip-path="url(#clip0_1_227)">
<path d="M11.625 2.25V12H13.875V2.75156C14.9953 3.39844 15.75 4.6125 15.75 6V12H18V6C18 2.68594 15.3141 0 12 0H9.00001C5.68595 0 3.00001 2.68594 3.00001 6V12H5.25001V6C5.25001 4.6125 6.0047 3.39844 7.12501 2.75156V12H9.37501V2.25H11.625ZM2.25001 13.5C1.68283 13.5 1.16251 13.8188 0.909389 14.3297L0.159389 15.8297C-0.0749856 16.2938 -0.0468606 16.8469 0.225014 17.2875C0.496889 17.7281 0.979702 18 1.50001 18V22.5C1.50001 23.3297 2.17033 24 3.00001 24C3.8297 24 4.50001 23.3297 4.50001 22.5V18H16.5V22.5C16.5 23.3297 17.1703 24 18 24C18.8297 24 19.5 23.3297 19.5 22.5V18C20.0203 18 20.5031 17.7328 20.775 17.2875C21.0469 16.8422 21.075 16.2938 20.8406 15.8297L20.0906 14.3297C19.8375 13.8188 19.3172 13.5 18.75 13.5H2.25001Z" fill="#64748B"/>
</g>
<defs>
<clipPath id="clip0_1_227">
<path d="M0 0H21V24H0V0Z" fill="white"/>
</clipPath>
</defs>
</svg>
