<svg width="16" height="17" viewBox="0 0 16 17" fill="none" xmlns="http://www.w3.org/2000/svg">
<path d="M7.05625 14.6549L6.97813 14.583L1.50312 9.49864C0.54375 8.60802 0 7.35801 0 6.04864V5.94551C0 3.74551 1.5625 1.85801 3.725 1.44551C4.95625 1.20801 6.21562 1.49239 7.21875 2.19864C7.5 2.39864 7.7625 2.62989 8 2.89551C8.13125 2.74551 8.27188 2.60801 8.42188 2.47989C8.5375 2.37989 8.65625 2.28614 8.78125 2.19864C9.78438 1.49239 11.0437 1.20801 12.275 1.44239C14.4375 1.85489 16 3.74551 16 5.94551V6.04864C16 7.35801 15.4563 8.60802 14.4969 9.49864L9.02188 14.583L8.94375 14.6549C8.6875 14.8924 8.35 15.0268 8 15.0268C7.65 15.0268 7.3125 14.8955 7.05625 14.6549ZM7.47188 4.55489C7.45938 4.54551 7.45 4.53301 7.44063 4.52051L6.88438 3.89551L6.88125 3.89239C6.15937 3.08301 5.06875 2.71426 4.00625 2.91739C2.55 3.19551 1.5 4.46426 1.5 5.94551V6.04864C1.5 6.93926 1.87188 7.79239 2.525 8.39864L8 13.483L13.475 8.39864C14.1281 7.79239 14.5 6.93926 14.5 6.04864V5.94551C14.5 4.46739 13.45 3.19551 11.9969 2.91739C10.9344 2.71426 9.84062 3.08614 9.12187 3.89239C9.12187 3.89239 9.12187 3.89239 9.11875 3.89551C9.11562 3.89864 9.11875 3.89551 9.11563 3.89864L8.55937 4.52364C8.55 4.53614 8.5375 4.54551 8.52812 4.55801C8.3875 4.69864 8.19687 4.77676 8 4.77676C7.80312 4.77676 7.6125 4.69864 7.47188 4.55801V4.55489Z" fill="#4B5563"/>
</svg>
