<svg width="18" height="18" viewBox="0 0 18 18" fill="none" xmlns="http://www.w3.org/2000/svg">
<path d="M14.625 7.31512C14.625 8.9288 14.1012 10.4194 13.2188 11.6288L17.6695 16.0831C18.109 16.5225 18.109 17.2362 17.6695 17.6757C17.2301 18.1151 16.5164 18.1151 16.077 17.6757L11.6262 13.2214C10.4168 14.1073 8.92617 14.6276 7.3125 14.6276C3.27305 14.6276 0 11.3546 0 7.31512C0 3.27567 3.27305 0.00262451 7.3125 0.00262451C11.352 0.00262451 14.625 3.27567 14.625 7.31512ZM7.3125 12.3776C7.97732 12.3776 8.63562 12.2467 9.24984 11.9923C9.86405 11.7379 10.4221 11.3649 10.8922 10.8949C11.3623 10.4248 11.7352 9.86667 11.9896 9.25246C12.2441 8.63825 12.375 7.97994 12.375 7.31512C12.375 6.65031 12.2441 5.992 11.9896 5.37779C11.7352 4.76358 11.3623 4.20549 10.8922 3.7354C10.4221 3.2653 9.86405 2.8924 9.24984 2.63798C8.63562 2.38357 7.97732 2.25262 7.3125 2.25262C6.64768 2.25262 5.98938 2.38357 5.37516 2.63798C4.76095 2.8924 4.20287 3.2653 3.73277 3.7354C3.26268 4.20549 2.88977 4.76358 2.63536 5.37779C2.38095 5.992 2.25 6.65031 2.25 7.31512C2.25 7.97994 2.38095 8.63825 2.63536 9.25246C2.88977 9.86667 3.26268 10.4248 3.73277 10.8949C4.20287 11.3649 4.76095 11.7379 5.37516 11.9923C5.98938 12.2467 6.64768 12.3776 7.3125 12.3776Z" fill="#4F46E5"/>
</svg>
