<svg width="18" height="18" viewBox="0 0 18 18" fill="none" xmlns="http://www.w3.org/2000/svg">
<path d="M1.67344 10.5689L8.02617 16.4997C8.28984 16.7458 8.63789 16.8829 9 16.8829C9.36211 16.8829 9.71016 16.7458 9.97383 16.4997L16.3266 10.5689C17.3953 9.57396 18 8.17825 18 6.71927V6.51536C18 4.05794 16.2246 1.96263 13.8023 1.55833C12.1992 1.29114 10.568 1.81497 9.42188 2.96106L9 3.38294L8.57812 2.96106C7.43203 1.81497 5.80078 1.29114 4.19766 1.55833C1.77539 1.96263 0 4.05794 0 6.51536V6.71927C0 8.17825 0.604687 9.57396 1.67344 10.5689Z" fill="#EF4444"/>
</svg>
