<svg width="18" height="18" viewBox="0 0 18 18" fill="none" xmlns="http://www.w3.org/2000/svg">
<path d="M14.625 7.31775C14.625 8.93142 14.1012 10.422 13.2188 11.6314L17.6695 16.0857C18.109 16.5252 18.109 17.2388 17.6695 17.6783C17.2301 18.1178 16.5164 18.1178 16.077 17.6783L11.6262 13.224C10.4168 14.1099 8.92617 14.6302 7.3125 14.6302C3.27305 14.6302 0 11.3572 0 7.31775C0 3.2783 3.27305 0.00524902 7.3125 0.00524902C11.352 0.00524902 14.625 3.2783 14.625 7.31775ZM7.3125 12.3802C7.97732 12.3802 8.63562 12.2493 9.24984 11.9949C9.86405 11.7405 10.4221 11.3676 10.8922 10.8975C11.3623 10.4274 11.7352 9.8693 11.9896 9.25508C12.2441 8.64087 12.375 7.98257 12.375 7.31775C12.375 6.65293 12.2441 5.99463 11.9896 5.38041C11.7352 4.7662 11.3623 4.20812 10.8922 3.73802C10.4221 3.26792 9.86405 2.89502 9.24984 2.64061C8.63562 2.38619 7.97732 2.25525 7.3125 2.25525C6.64768 2.25525 5.98938 2.38619 5.37516 2.64061C4.76095 2.89502 4.20287 3.26792 3.73277 3.73802C3.26268 4.20812 2.88977 4.7662 2.63536 5.38041C2.38095 5.99463 2.25 6.65293 2.25 7.31775C2.25 7.98257 2.38095 8.64087 2.63536 9.25508C2.88977 9.8693 3.26268 10.4274 3.73277 10.8975C4.20287 11.3676 4.76095 11.7405 5.37516 11.9949C5.98938 12.2493 6.64768 12.3802 7.3125 12.3802Z" fill="#6B7280"/>
</svg>
