<svg width="16" height="17" viewBox="0 0 16 17" fill="none" xmlns="http://www.w3.org/2000/svg">
<path d="M1.25 1.51587C0.834375 1.51587 0.5 1.85024 0.5 2.26587V3.76587C0.5 4.18149 0.834375 4.51587 1.25 4.51587H2.75C3.16563 4.51587 3.5 4.18149 3.5 3.76587V2.26587C3.5 1.85024 3.16563 1.51587 2.75 1.51587H1.25ZM6 2.01587C5.44688 2.01587 5 2.46274 5 3.01587C5 3.56899 5.44688 4.01587 6 4.01587H15C15.5531 4.01587 16 3.56899 16 3.01587C16 2.46274 15.5531 2.01587 15 2.01587H6ZM6 7.01587C5.44688 7.01587 5 7.46274 5 8.01587C5 8.56899 5.44688 9.01587 6 9.01587H15C15.5531 9.01587 16 8.56899 16 8.01587C16 7.46274 15.5531 7.01587 15 7.01587H6ZM6 12.0159C5.44688 12.0159 5 12.4627 5 13.0159C5 13.569 5.44688 14.0159 6 14.0159H15C15.5531 14.0159 16 13.569 16 13.0159C16 12.4627 15.5531 12.0159 15 12.0159H6ZM0.5 7.26587V8.76587C0.5 9.18149 0.834375 9.51587 1.25 9.51587H2.75C3.16563 9.51587 3.5 9.18149 3.5 8.76587V7.26587C3.5 6.85024 3.16563 6.51587 2.75 6.51587H1.25C0.834375 6.51587 0.5 6.85024 0.5 7.26587ZM1.25 11.5159C0.834375 11.5159 0.5 11.8502 0.5 12.2659V13.7659C0.5 14.1815 0.834375 14.5159 1.25 14.5159H2.75C3.16563 14.5159 3.5 14.1815 3.5 13.7659V12.2659C3.5 11.8502 3.16563 11.5159 2.75 11.5159H1.25Z" fill="#374151"/>
</svg>
