<svg width="16" height="17" viewBox="0 0 16 17" fill="none" xmlns="http://www.w3.org/2000/svg">
<path d="M1.25 1.51855C0.834375 1.51855 0.5 1.85293 0.5 2.26855V3.76855C0.5 4.18418 0.834375 4.51855 1.25 4.51855H2.75C3.16563 4.51855 3.5 4.18418 3.5 3.76855V2.26855C3.5 1.85293 3.16563 1.51855 2.75 1.51855H1.25ZM6 2.01855C5.44688 2.01855 5 2.46543 5 3.01855C5 3.57168 5.44688 4.01855 6 4.01855H15C15.5531 4.01855 16 3.57168 16 3.01855C16 2.46543 15.5531 2.01855 15 2.01855H6ZM6 7.01855C5.44688 7.01855 5 7.46543 5 8.01855C5 8.57168 5.44688 9.01855 6 9.01855H15C15.5531 9.01855 16 8.57168 16 8.01855C16 7.46543 15.5531 7.01855 15 7.01855H6ZM6 12.0186C5.44688 12.0186 5 12.4654 5 13.0186C5 13.5717 5.44688 14.0186 6 14.0186H15C15.5531 14.0186 16 13.5717 16 13.0186C16 12.4654 15.5531 12.0186 15 12.0186H6ZM0.5 7.26855V8.76855C0.5 9.18418 0.834375 9.51855 1.25 9.51855H2.75C3.16563 9.51855 3.5 9.18418 3.5 8.76855V7.26855C3.5 6.85293 3.16563 6.51855 2.75 6.51855H1.25C0.834375 6.51855 0.5 6.85293 0.5 7.26855ZM1.25 11.5186C0.834375 11.5186 0.5 11.8529 0.5 12.2686V13.7686C0.5 14.1842 0.834375 14.5186 1.25 14.5186H2.75C3.16563 14.5186 3.5 14.1842 3.5 13.7686V12.2686C3.5 11.8529 3.16563 11.5186 2.75 11.5186H1.25Z" fill="#6B7280"/>
</svg>
