<svg width="14" height="15" viewBox="0 0 14 15" fill="none" xmlns="http://www.w3.org/2000/svg">
<path d="M4.50898 0.69903C4.29844 0.190436 3.74336 -0.0802673 3.21289 0.0646546L0.806641 0.720905C0.330859 0.852155 0 1.28419 0 1.77637C0 8.54122 5.48516 14.0264 12.25 14.0264C12.7422 14.0264 13.1742 13.6955 13.3055 13.2197L13.9617 10.8135C14.1066 10.283 13.8359 9.72794 13.3273 9.51739L10.7023 8.42364C10.2566 8.2377 9.73984 8.36622 9.43633 8.74083L8.33164 10.0889C6.40664 9.17833 4.84805 7.61973 3.9375 5.69473L5.28555 4.59278C5.66016 4.28653 5.78867 3.77247 5.60273 3.32676L4.50898 0.701764V0.69903Z" fill="#4B5563"/>
</svg>
