<svg width="18" height="19" viewBox="0 0 18 19" fill="none" xmlns="http://www.w3.org/2000/svg">
<path d="M1.67344 10.5714L8.02617 16.5022C8.28984 16.7483 8.63789 16.8854 9 16.8854C9.36211 16.8854 9.71016 16.7483 9.97383 16.5022L16.3266 10.5714C17.3953 9.57646 18 8.18075 18 6.72177V6.51786C18 4.06044 16.2246 1.96513 13.8023 1.56083C12.1992 1.29365 10.568 1.81747 9.42188 2.96357L9 3.38544L8.57812 2.96357C7.43203 1.81747 5.80078 1.29365 4.19766 1.56083C1.77539 1.96513 0 4.06044 0 6.51786V6.72177C0 8.18075 0.604687 9.57646 1.67344 10.5714Z" fill="#6B7280"/>
</svg>
