<svg width="16" height="17" viewBox="0 0 16 17" fill="none" xmlns="http://www.w3.org/2000/svg">
<path d="M7.05625 14.6523L6.97813 14.5805L1.50312 9.49608C0.54375 8.60545 0 7.35545 0 6.04608V5.94295C0 3.74295 1.5625 1.85545 3.725 1.44295C4.95625 1.20545 6.21562 1.48983 7.21875 2.19608C7.5 2.39608 7.7625 2.62733 8 2.89295C8.13125 2.74295 8.27188 2.60545 8.42188 2.47733C8.5375 2.37733 8.65625 2.28358 8.78125 2.19608C9.78438 1.48983 11.0437 1.20545 12.275 1.43983C14.4375 1.85233 16 3.74295 16 5.94295V6.04608C16 7.35545 15.4563 8.60545 14.4969 9.49608L9.02188 14.5805L8.94375 14.6523C8.6875 14.8898 8.35 15.0242 8 15.0242C7.65 15.0242 7.3125 14.893 7.05625 14.6523ZM7.47188 4.55233C7.45938 4.54295 7.45 4.53045 7.44063 4.51795L6.88438 3.89295L6.88125 3.88983C6.15937 3.08045 5.06875 2.7117 4.00625 2.91483C2.55 3.19295 1.5 4.4617 1.5 5.94295V6.04608C1.5 6.9367 1.87188 7.78983 2.525 8.39608L8 13.4805L13.475 8.39608C14.1281 7.78983 14.5 6.9367 14.5 6.04608V5.94295C14.5 4.46483 13.45 3.19295 11.9969 2.91483C10.9344 2.7117 9.84062 3.08358 9.12187 3.88983C9.12187 3.88983 9.12187 3.88983 9.11875 3.89295C9.11562 3.89608 9.11875 3.89295 9.11563 3.89608L8.55937 4.52108C8.55 4.53358 8.5375 4.54295 8.52812 4.55545C8.3875 4.69608 8.19687 4.7742 8 4.7742C7.80312 4.7742 7.6125 4.69608 7.47188 4.55545V4.55233Z" fill="#EF4444"/>
</svg>
