<svg width="16" height="17" viewBox="0 0 16 17" fill="none" xmlns="http://www.w3.org/2000/svg">
<path d="M1.4875 9.40476L7.13438 14.6766C7.36875 14.8954 7.67812 15.0173 8 15.0173C8.32187 15.0173 8.63125 14.8954 8.86563 14.6766L14.5125 9.40476C15.4625 8.52038 16 7.27976 16 5.98288V5.80163C16 3.61726 14.4219 1.75476 12.2688 1.39538C10.8438 1.15788 9.39375 1.62351 8.375 2.64226L8 3.01726L7.625 2.64226C6.60625 1.62351 5.15625 1.15788 3.73125 1.39538C1.57812 1.75476 0 3.61726 0 5.80163V5.98288C0 7.27976 0.5375 8.52038 1.4875 9.40476Z" fill="#EF4444"/>
</svg>
