<svg width="12" height="19" viewBox="0 0 12 19" fill="none" xmlns="http://www.w3.org/2000/svg">
<path d="M5.6253 0.0126953C6.24756 0.0126953 6.7503 0.51543 6.7503 1.1377V2.39277C6.80655 2.3998 6.85928 2.40684 6.91553 2.41738C6.92959 2.4209 6.94014 2.4209 6.9542 2.42441L8.6417 2.73379C9.25342 2.84629 9.65772 3.4334 9.54522 4.0416C9.43272 4.6498 8.84561 5.05762 8.2374 4.94512L6.56748 4.63926C5.46709 4.47754 4.49678 4.58652 3.81475 4.85723C3.13272 5.12793 2.8585 5.50059 2.79522 5.84512C2.7249 6.22129 2.77764 6.43223 2.8374 6.5623C2.90069 6.69941 3.03076 6.8541 3.2874 7.02637C3.86045 7.40254 4.73936 7.64863 5.87842 7.95098L5.98037 7.9791C6.98584 8.24629 8.21631 8.56973 9.13037 9.16738C9.62959 9.49434 10.1007 9.9373 10.3925 10.5561C10.6913 11.1854 10.7546 11.8885 10.6175 12.6373C10.3749 13.9732 9.45381 14.8662 8.31123 15.3338C7.82959 15.5307 7.30576 15.6572 6.7503 15.7205V16.8877C6.7503 17.51 6.24756 18.0127 5.6253 18.0127C5.00303 18.0127 4.50029 17.51 4.50029 16.8877V15.6607C4.48623 15.6572 4.46865 15.6572 4.45459 15.6537H4.44756C3.58975 15.5201 2.17998 15.151 1.23076 14.7291C0.664748 14.476 0.408107 13.8115 0.661232 13.2455C0.914357 12.6795 1.57881 12.4229 2.14483 12.676C2.87959 13.0029 4.08897 13.3264 4.78858 13.4354C5.91006 13.6006 6.83467 13.5057 7.46045 13.249C8.05459 13.0064 8.32529 12.6549 8.40264 12.233C8.46944 11.8604 8.4167 11.6459 8.35694 11.5158C8.29014 11.3752 8.16006 11.2205 7.8999 11.0482C7.32334 10.6721 6.44092 10.426 5.29834 10.1236L5.1999 10.099C4.19795 9.83184 2.96748 9.50488 2.05342 8.90723C1.5542 8.58027 1.08662 8.13379 0.794826 7.51504C0.499514 6.88574 0.439748 6.18262 0.580373 5.43379C0.833498 4.09082 1.83897 3.21895 2.98154 2.76543C3.44912 2.5791 3.9624 2.45254 4.50029 2.37871V1.1377C4.50029 0.51543 5.00303 0.0126953 5.6253 0.0126953Z" fill="#4F46E5"/>
</svg>
