<svg width="30" height="31" viewBox="0 0 30 31" fill="none" xmlns="http://www.w3.org/2000/svg">
<path d="M11.1621 4.04199L13.2012 7.51074H13.125H8.90625C7.61133 7.51074 6.5625 6.46191 6.5625 5.16699C6.5625 3.87207 7.61133 2.82324 8.90625 2.82324H9.03516C9.9082 2.82324 10.7227 3.28613 11.1621 4.04199ZM3.75 5.16699C3.75 6.01074 3.95508 6.80762 4.3125 7.51074H1.875C0.837891 7.51074 0 8.34863 0 9.38574V13.1357C0 14.1729 0.837891 15.0107 1.875 15.0107H28.125C29.1621 15.0107 30 14.1729 30 13.1357V9.38574C30 8.34863 29.1621 7.51074 28.125 7.51074H25.6875C26.0449 6.80762 26.25 6.01074 26.25 5.16699C26.25 2.31934 23.9414 0.0107422 21.0938 0.0107422H20.9648C19.0957 0.0107422 17.3613 1.00098 16.4121 2.6123L15 5.02051L13.5879 2.61816C12.6387 1.00098 10.9043 0.0107422 9.03516 0.0107422H8.90625C6.05859 0.0107422 3.75 2.31934 3.75 5.16699ZM23.4375 5.16699C23.4375 6.46191 22.3887 7.51074 21.0938 7.51074H16.875H16.7988L18.8379 4.04199C19.2832 3.28613 20.0918 2.82324 20.9648 2.82324H21.0938C22.3887 2.82324 23.4375 3.87207 23.4375 5.16699ZM1.875 16.8857V27.1982C1.875 28.751 3.13477 30.0107 4.6875 30.0107H13.125V16.8857H1.875ZM16.875 30.0107H25.3125C26.8652 30.0107 28.125 28.751 28.125 27.1982V16.8857H16.875V30.0107Z" fill="white"/>
</svg>
