<svg width="17" height="17" viewBox="0 0 17 17" fill="none" xmlns="http://www.w3.org/2000/svg">
<path d="M13.65 6.84063C13.65 8.34672 13.1611 9.73797 12.3375 10.8667L16.4916 15.0241C16.9017 15.4342 16.9017 16.1003 16.4916 16.5105C16.0814 16.9206 15.4153 16.9206 15.0052 16.5105L10.8511 12.3531C9.72234 13.18 8.33109 13.6656 6.825 13.6656C3.05484 13.6656 0 10.6108 0 6.84063C0 3.07047 3.05484 0.015625 6.825 0.015625C10.5952 0.015625 13.65 3.07047 13.65 6.84063ZM6.825 11.5656C7.4455 11.5656 8.05992 11.4434 8.63318 11.206C9.20644 10.9685 9.72732 10.6205 10.1661 10.1817C10.6048 9.74295 10.9529 9.22207 11.1903 8.6488C11.4278 8.07554 11.55 7.46112 11.55 6.84063C11.55 6.22013 11.4278 5.60571 11.1903 5.03245C10.9529 4.45918 10.6048 3.9383 10.1661 3.49955C9.72732 3.06079 9.20644 2.71275 8.63318 2.47529C8.05992 2.23784 7.4455 2.11563 6.825 2.11563C6.2045 2.11563 5.59008 2.23784 5.01682 2.47529C4.44356 2.71275 3.92268 3.06079 3.48392 3.49955C3.04516 3.9383 2.69712 4.45918 2.45967 5.03245C2.22222 5.60571 2.1 6.22013 2.1 6.84063C2.1 7.46112 2.22222 8.07554 2.45967 8.6488C2.69712 9.22207 3.04516 9.74295 3.48392 10.1817C3.92268 10.6205 4.44356 10.9685 5.01682 11.206C5.59008 11.4434 6.2045 11.5656 6.825 11.5656Z" fill="white"/>
</svg>
