<svg width="16" height="17" viewBox="0 0 16 17" fill="none" xmlns="http://www.w3.org/2000/svg">
<path d="M4.225 3.68975L3.40937 6.021H12.5906L11.775 3.68975C11.6344 3.28975 11.2563 3.021 10.8313 3.021H5.16875C4.74375 3.021 4.36562 3.28975 4.225 3.68975ZM1.2375 6.171L2.3375 3.03037C2.75938 1.82725 3.89375 1.021 5.16875 1.021H10.8313C12.1062 1.021 13.2406 1.82725 13.6625 3.03037L14.7625 6.171C15.4875 6.471 16 7.18662 16 8.021V12.521V14.021C16 14.5741 15.5531 15.021 15 15.021H14C13.4469 15.021 13 14.5741 13 14.021V12.521H3V14.021C3 14.5741 2.55312 15.021 2 15.021H1C0.446875 15.021 0 14.5741 0 14.021V12.521V8.021C0 7.18662 0.5125 6.471 1.2375 6.171ZM4 9.021C4 8.75578 3.89464 8.50143 3.70711 8.31389C3.51957 8.12635 3.26522 8.021 3 8.021C2.73478 8.021 2.48043 8.12635 2.29289 8.31389C2.10536 8.50143 2 8.75578 2 9.021C2 9.28621 2.10536 9.54057 2.29289 9.7281C2.48043 9.91564 2.73478 10.021 3 10.021C3.26522 10.021 3.51957 9.91564 3.70711 9.7281C3.89464 9.54057 4 9.28621 4 9.021ZM13 10.021C13.2652 10.021 13.5196 9.91564 13.7071 9.7281C13.8946 9.54057 14 9.28621 14 9.021C14 8.75578 13.8946 8.50143 13.7071 8.31389C13.5196 8.12635 13.2652 8.021 13 8.021C12.7348 8.021 12.4804 8.12635 12.2929 8.31389C12.1054 8.50143 12 8.75578 12 9.021C12 9.28621 12.1054 9.54057 12.2929 9.7281C12.4804 9.91564 12.7348 10.021 13 10.021Z" fill="#6366F1"/>
</svg>
