<svg width="30" height="30" viewBox="0 0 30 30" fill="none" xmlns="http://www.w3.org/2000/svg">
<path d="M7.92188 6.88428L6.39258 11.2554H23.6074L22.0781 6.88428C21.8145 6.13428 21.1055 5.63037 20.3086 5.63037H9.69141C8.89453 5.63037 8.18555 6.13428 7.92188 6.88428ZM2.32031 11.5366L4.38281 5.64795C5.17383 3.39209 7.30078 1.88037 9.69141 1.88037H20.3086C22.6992 1.88037 24.8262 3.39209 25.6172 5.64795L27.6797 11.5366C29.0391 12.0991 30 13.4409 30 15.0054V23.4429V26.2554C30 27.2925 29.1621 28.1304 28.125 28.1304H26.25C25.2129 28.1304 24.375 27.2925 24.375 26.2554V23.4429H5.625V26.2554C5.625 27.2925 4.78711 28.1304 3.75 28.1304H1.875C0.837891 28.1304 0 27.2925 0 26.2554V23.4429V15.0054C0 13.4409 0.960937 12.0991 2.32031 11.5366ZM7.5 16.8804C7.5 16.3831 7.30246 15.9062 6.95083 15.5545C6.59919 15.2029 6.12228 15.0054 5.625 15.0054C5.12772 15.0054 4.65081 15.2029 4.29917 15.5545C3.94754 15.9062 3.75 16.3831 3.75 16.8804C3.75 17.3777 3.94754 17.8546 4.29917 18.2062C4.65081 18.5578 5.12772 18.7554 5.625 18.7554C6.12228 18.7554 6.59919 18.5578 6.95083 18.2062C7.30246 17.8546 7.5 17.3777 7.5 16.8804ZM24.375 18.7554C24.8723 18.7554 25.3492 18.5578 25.7008 18.2062C26.0525 17.8546 26.25 17.3777 26.25 16.8804C26.25 16.3831 26.0525 15.9062 25.7008 15.5545C25.3492 15.2029 24.8723 15.0054 24.375 15.0054C23.8777 15.0054 23.4008 15.2029 23.0492 15.5545C22.6975 15.9062 22.5 16.3831 22.5 16.8804C22.5 17.3777 22.6975 17.8546 23.0492 18.2062C23.4008 18.5578 23.8777 18.7554 24.375 18.7554Z" fill="white"/>
</svg>
