<svg width="38" height="30" viewBox="0 0 38 30" fill="none" xmlns="http://www.w3.org/2000/svg">
<path d="M2.8125 0.00634766C1.25977 0.00634766 0 1.26611 0 2.81885V21.5688C0 23.1216 1.25977 24.3813 2.8125 24.3813H3.75C3.75 27.4868 6.26953 30.0063 9.375 30.0063C12.4805 30.0063 15 27.4868 15 24.3813H22.5C22.5 27.4868 25.0195 30.0063 28.125 30.0063C31.2305 30.0063 33.75 27.4868 33.75 24.3813H35.625C36.6621 24.3813 37.5 23.5435 37.5 22.5063C37.5 21.4692 36.6621 20.6313 35.625 20.6313V16.8813V15.0063V13.9106C35.625 12.9146 35.2324 11.9595 34.5293 11.2563L30 6.72705C29.2969 6.02393 28.3418 5.63135 27.3457 5.63135H24.375V2.81885C24.375 1.26611 23.1152 0.00634766 21.5625 0.00634766H2.8125ZM24.375 9.38135H27.3457L31.875 13.9106V15.0063H24.375V9.38135ZM6.5625 24.3813C6.5625 23.6354 6.85882 22.9201 7.38626 22.3926C7.91371 21.8652 8.62908 21.5688 9.375 21.5688C10.1209 21.5688 10.8363 21.8652 11.3637 22.3926C11.8912 22.9201 12.1875 23.6354 12.1875 24.3813C12.1875 25.1273 11.8912 25.8426 11.3637 26.3701C10.8363 26.8975 10.1209 27.1938 9.375 27.1938C8.62908 27.1938 7.91371 26.8975 7.38626 26.3701C6.85882 25.8426 6.5625 25.1273 6.5625 24.3813ZM28.125 21.5688C28.8709 21.5688 29.5863 21.8652 30.1137 22.3926C30.6412 22.9201 30.9375 23.6354 30.9375 24.3813C30.9375 25.1273 30.6412 25.8426 30.1137 26.3701C29.5863 26.8975 28.8709 27.1938 28.125 27.1938C27.3791 27.1938 26.6637 26.8975 26.1363 26.3701C25.6088 25.8426 25.3125 25.1273 25.3125 24.3813C25.3125 23.6354 25.6088 22.9201 26.1363 22.3926C26.6637 21.8652 27.3791 21.5688 28.125 21.5688Z" fill="white"/>
</svg>
