<svg width="18" height="18" viewBox="0 0 18 18" fill="none" xmlns="http://www.w3.org/2000/svg">
<path d="M1.67344 10.5639L8.02617 16.4948C8.28984 16.7409 8.63789 16.878 9 16.878C9.36211 16.878 9.71016 16.7409 9.97383 16.4948L16.3266 10.5639C17.3953 9.56901 18 8.17331 18 6.71432V6.51042C18 4.053 16.2246 1.95768 13.8023 1.55339C12.1992 1.2862 10.568 1.81003 9.42188 2.95612L9 3.378L8.57812 2.95612C7.43203 1.81003 5.80078 1.2862 4.19766 1.55339C1.77539 1.95768 0 4.053 0 6.51042V6.71432C0 8.17331 0.604687 9.56901 1.67344 10.5639Z" fill="#EF4444"/>
</svg>
