<svg width="18" height="17" viewBox="0 0 18 17" fill="none" xmlns="http://www.w3.org/2000/svg">
<path d="M8 1.01904H5.6625C4.81562 1.01904 4.05937 1.55342 3.77813 2.35029L0.096875 12.744C0.034375 12.9253 0 13.119 0 13.3128C0 14.2534 0.765625 15.019 1.70625 15.019H8V13.019C8 12.4659 8.44687 12.019 9 12.019C9.55313 12.019 10 12.4659 10 13.019V15.019H16.2938C17.2375 15.019 18 14.2534 18 13.3128C18 13.119 17.9656 12.9253 17.9031 12.744L14.2219 2.35029C13.9375 1.55342 13.1844 1.01904 12.3375 1.01904H10V3.01904C10 3.57217 9.55313 4.01904 9 4.01904C8.44687 4.01904 8 3.57217 8 3.01904V1.01904ZM10 7.01904V9.01904C10 9.57217 9.55313 10.019 9 10.019C8.44687 10.019 8 9.57217 8 9.01904V7.01904C8 6.46592 8.44687 6.01904 9 6.01904C9.55313 6.01904 10 6.46592 10 7.01904Z" fill="#6366F1"/>
</svg>
