<svg width="18" height="18" viewBox="0 0 18 18" fill="none" xmlns="http://www.w3.org/2000/svg">
<path d="M14.625 7.31445C14.625 8.92813 14.1012 10.4188 13.2188 11.6281L17.6695 16.0824C18.109 16.5219 18.109 17.2355 17.6695 17.675C17.2301 18.1145 16.5164 18.1145 16.077 17.675L11.6262 13.2207C10.4168 14.1066 8.92617 14.627 7.3125 14.627C3.27305 14.627 0 11.3539 0 7.31445C0 3.275 3.27305 0.00195312 7.3125 0.00195312C11.352 0.00195312 14.625 3.275 14.625 7.31445ZM7.3125 12.377C7.97732 12.377 8.63562 12.246 9.24984 11.9916C9.86405 11.7372 10.4221 11.3643 10.8922 10.8942C11.3623 10.4241 11.7352 9.866 11.9896 9.25179C12.2441 8.63758 12.375 7.97927 12.375 7.31445C12.375 6.64964 12.2441 5.99133 11.9896 5.37712C11.7352 4.76291 11.3623 4.20482 10.8922 3.73472C10.4221 3.26463 9.86405 2.89173 9.24984 2.63731C8.63562 2.3829 7.97732 2.25195 7.3125 2.25195C6.64768 2.25195 5.98938 2.3829 5.37516 2.63731C4.76095 2.89173 4.20287 3.26463 3.73277 3.73472C3.26268 4.20482 2.88977 4.76291 2.63536 5.37712C2.38095 5.99133 2.25 6.64964 2.25 7.31445C2.25 7.97927 2.38095 8.63758 2.63536 9.25179C2.88977 9.866 3.26268 10.4241 3.73277 10.8942C4.20287 11.3643 4.76095 11.7372 5.37516 11.9916C5.98938 12.246 6.64768 12.377 7.3125 12.377Z" fill="#6B7280"/>
</svg>
