<svg width="14" height="17" viewBox="0 0 14 17" fill="none" xmlns="http://www.w3.org/2000/svg">
<path d="M10.9191 1.41601C11.1034 0.98788 10.9659 0.48788 10.5878 0.21288C10.2097 -0.0621196 9.69407 -0.0371196 9.34094 0.26913L1.34094 7.26913C1.02844 7.54413 0.915944 7.98476 1.06282 8.37226C1.20969 8.75976 1.58469 9.02225 2.00032 9.02225H5.48469L3.08157 14.6285C2.89719 15.0566 3.03469 15.5566 3.41282 15.8316C3.79094 16.1066 4.30657 16.0816 4.65969 15.7754L12.6597 8.77538C12.9722 8.50038 13.0847 8.05976 12.9378 7.67226C12.7909 7.28476 12.4191 7.02538 12.0003 7.02538H8.51594L10.9191 1.41601Z" fill="#6366F1"/>
</svg>
