<svg width="16" height="17" viewBox="0 0 16 17" fill="none" xmlns="http://www.w3.org/2000/svg">
<path d="M1.4875 9.40573L7.13438 14.6776C7.36875 14.8964 7.67812 15.0182 8 15.0182C8.32187 15.0182 8.63125 14.8964 8.86563 14.6776L14.5125 9.40573C15.4625 8.52136 16 7.28073 16 5.98386V5.80261C16 3.61823 14.4219 1.75573 12.2688 1.39636C10.8438 1.15886 9.39375 1.62448 8.375 2.64323L8 3.01823L7.625 2.64323C6.60625 1.62448 5.15625 1.15886 3.73125 1.39636C1.57812 1.75573 0 3.61823 0 5.80261V5.98386C0 7.28073 0.5375 8.52136 1.4875 9.40573Z" fill="#4B5563"/>
</svg>
