<svg width="23" height="30" viewBox="0 0 23 30" fill="none" xmlns="http://www.w3.org/2000/svg">
<path d="M21.9497 6.95752C22.6821 6.2251 22.6821 5.03564 21.9497 4.30322C21.2173 3.5708 20.0278 3.5708 19.2954 4.30322L0.54541 23.0532C-0.187012 23.7856 -0.187012 24.9751 0.54541 25.7075C1.27783 26.4399 2.46729 26.4399 3.19971 25.7075L21.9497 6.95752ZM7.50049 7.5083C7.50049 6.51374 7.1054 5.55991 6.40214 4.85665C5.69888 4.15339 4.74505 3.7583 3.75049 3.7583C2.75593 3.7583 1.8021 4.15339 1.09884 4.85665C0.395577 5.55991 0.00048827 6.51374 0.00048827 7.5083C0.00048827 8.50286 0.395577 9.45669 1.09884 10.16C1.8021 10.8632 2.75593 11.2583 3.75049 11.2583C4.74505 11.2583 5.69888 10.8632 6.40214 10.16C7.1054 9.45669 7.50049 8.50286 7.50049 7.5083ZM22.5005 22.5083C22.5005 21.5137 22.1054 20.5599 21.4021 19.8567C20.6989 19.1534 19.7451 18.7583 18.7505 18.7583C17.7559 18.7583 16.8021 19.1534 16.0988 19.8567C15.3956 20.5599 15.0005 21.5137 15.0005 22.5083C15.0005 23.5029 15.3956 24.4567 16.0988 25.16C16.8021 25.8632 17.7559 26.2583 18.7505 26.2583C19.7451 26.2583 20.6989 25.8632 21.4021 25.16C22.1054 24.4567 22.5005 23.5029 22.5005 22.5083Z" fill="white"/>
</svg>
