<svg width="18" height="18" viewBox="0 0 18 18" fill="none" xmlns="http://www.w3.org/2000/svg">
<path d="M14.625 7.31348C14.625 8.92715 14.1012 10.4178 13.2188 11.6271L17.6695 16.0814C18.109 16.5209 18.109 17.2346 17.6695 17.674C17.2301 18.1135 16.5164 18.1135 16.077 17.674L11.6262 13.2197C10.4168 14.1057 8.92617 14.626 7.3125 14.626C3.27305 14.626 0 11.3529 0 7.31348C0 3.27402 3.27305 0.000976562 7.3125 0.000976562C11.352 0.000976562 14.625 3.27402 14.625 7.31348ZM7.3125 12.376C7.97732 12.376 8.63562 12.245 9.24984 11.9906C9.86405 11.7362 10.4221 11.3633 10.8922 10.8932C11.3623 10.4231 11.7352 9.86502 11.9896 9.25081C12.2441 8.6366 12.375 7.97829 12.375 7.31348C12.375 6.64866 12.2441 5.99035 11.9896 5.37614C11.7352 4.76193 11.3623 4.20385 10.8922 3.73375C10.4221 3.26365 9.86405 2.89075 9.24984 2.63634C8.63562 2.38192 7.97732 2.25098 7.3125 2.25098C6.64768 2.25098 5.98938 2.38192 5.37516 2.63634C4.76095 2.89075 4.20287 3.26365 3.73277 3.73375C3.26268 4.20385 2.88977 4.76193 2.63536 5.37614C2.38095 5.99035 2.25 6.64866 2.25 7.31348C2.25 7.97829 2.38095 8.6366 2.63536 9.25081C2.88977 9.86502 3.26268 10.4231 3.73277 10.8932C4.20287 11.3633 4.76095 11.7362 5.37516 11.9906C5.98938 12.245 6.64768 12.376 7.3125 12.376Z" fill="#4F46E5"/>
</svg>
