<svg width="19" height="19" viewBox="0 0 19 19" fill="none" xmlns="http://www.w3.org/2000/svg">
<path d="M15.3562 7.68984C15.3562 9.3842 14.8062 10.9494 13.8797 12.2192L18.553 16.8962C19.0144 17.3576 19.0144 18.107 18.553 18.5684C18.0916 19.0298 17.3422 19.0298 16.8808 18.5684L12.2075 13.8914C10.9376 14.8216 9.37248 15.368 7.67812 15.368C3.4367 15.368 0 11.9313 0 7.68984C0 3.44842 3.4367 0.0117188 7.67812 0.0117188C11.9196 0.0117188 15.3562 3.44842 15.3562 7.68984ZM7.67812 13.0055C8.37618 13.0055 9.0674 12.868 9.71233 12.6008C10.3572 12.3337 10.9432 11.9422 11.4368 11.4486C11.9304 10.955 12.322 10.369 12.5891 9.72404C12.8563 9.07912 12.9937 8.3879 12.9937 7.68984C12.9937 6.99179 12.8563 6.30056 12.5891 5.65564C12.322 5.01072 11.9304 4.42473 11.4368 3.93113C10.9432 3.43753 10.3572 3.04598 9.71233 2.77885C9.0674 2.51171 8.37618 2.37422 7.67812 2.37422C6.98007 2.37422 6.28884 2.51171 5.64392 2.77885C4.999 3.04598 4.41301 3.43753 3.91941 3.93113C3.42581 4.42473 3.03426 5.01072 2.76713 5.65564C2.49999 6.30056 2.3625 6.99179 2.3625 7.68984C2.3625 8.3879 2.49999 9.07912 2.76713 9.72404C3.03426 10.369 3.42581 10.955 3.91941 11.4486C4.41301 11.9422 4.999 12.3337 5.64392 12.6008C6.28884 12.868 6.98007 13.0055 7.67812 13.0055Z" fill="white"/>
</svg>
