<svg width="27" height="30" viewBox="0 0 27 30" fill="none" xmlns="http://www.w3.org/2000/svg">
<path d="M20.4731 2.62065C20.8188 1.81791 20.561 0.880413 19.852 0.364788C19.1431 -0.150837 18.1763 -0.103962 17.5141 0.470257L2.51415 13.5953C1.92821 14.1109 1.71727 14.9371 1.99266 15.6636C2.26805 16.3902 2.97118 16.8824 3.75048 16.8824H10.2837L5.77782 27.3941C5.43212 28.1968 5.68993 29.1343 6.39891 29.6499C7.1079 30.1656 8.07469 30.1187 8.7368 29.5445L23.7368 16.4195C24.3227 15.9038 24.5337 15.0777 24.2583 14.3511C23.9829 13.6246 23.2856 13.1382 22.5005 13.1382H15.9673L20.4731 2.62065Z" fill="white"/>
</svg>
