<svg width="18" height="18" viewBox="0 0 18 18" fill="none" xmlns="http://www.w3.org/2000/svg">
<path d="M1.67344 10.5654L8.02617 16.4963C8.28984 16.7424 8.63789 16.8795 9 16.8795C9.36211 16.8795 9.71016 16.7424 9.97383 16.4963L16.3266 10.5654C17.3953 9.57048 18 8.17477 18 6.71579V6.51188C18 4.05446 16.2246 1.95915 13.8023 1.55485C12.1992 1.28766 10.568 1.81149 9.42188 2.95759L9 3.37946L8.57812 2.95759C7.43203 1.81149 5.80078 1.28766 4.19766 1.55485C1.77539 1.95915 0 4.05446 0 6.51188V6.71579C0 8.17477 0.604687 9.57048 1.67344 10.5654Z" fill="#6B7280"/>
</svg>
