<svg width="16" height="17" viewBox="0 0 16 17" fill="none" xmlns="http://www.w3.org/2000/svg">
<path d="M15.4967 5.22627C15.5967 5.49814 15.5123 5.80127 15.2967 5.99502L13.9436 7.22627C13.9779 7.48564 13.9967 7.75127 13.9967 8.02002C13.9967 8.28877 13.9779 8.55439 13.9436 8.81377L15.2967 10.045C15.5123 10.2388 15.5967 10.5419 15.4967 10.8138C15.3592 11.1856 15.1936 11.5419 15.0029 11.8856L14.8561 12.1388C14.6498 12.4825 14.4186 12.8075 14.1654 13.1138C13.9811 13.3388 13.6748 13.4138 13.3998 13.3263L11.6592 12.7731C11.2404 13.095 10.7779 13.3638 10.2842 13.5669L9.89356 15.3513C9.83106 15.6356 9.61231 15.8606 9.32481 15.9075C8.89356 15.9794 8.44981 16.0169 7.99669 16.0169C7.54356 16.0169 7.09981 15.9794 6.66856 15.9075C6.38106 15.8606 6.16231 15.6356 6.09981 15.3513L5.70919 13.5669C5.21544 13.3638 4.75294 13.095 4.33419 12.7731L2.59669 13.3294C2.32169 13.4169 2.01544 13.3388 1.83106 13.1169C1.57794 12.8106 1.34669 12.4856 1.14044 12.1419L0.993563 11.8888C0.802938 11.545 0.637313 11.1888 0.499813 10.8169C0.399813 10.545 0.484188 10.2419 0.699813 10.0481L2.05294 8.81689C2.01856 8.55439 1.99981 8.28877 1.99981 8.02002C1.99981 7.75127 2.01856 7.48564 2.05294 7.22627L0.699813 5.99502C0.484188 5.80127 0.399813 5.49814 0.499813 5.22627C0.637313 4.85439 0.802938 4.49814 0.993563 4.15439L1.14044 3.90127C1.34669 3.55752 1.57794 3.23252 1.83106 2.92627C2.01544 2.70127 2.32169 2.62627 2.59669 2.71377L4.33731 3.26689C4.75606 2.94502 5.21856 2.67627 5.71231 2.47314L6.10294 0.68877C6.16544 0.404395 6.38419 0.179395 6.67169 0.13252C7.10294 0.0575195 7.54669 0.0200195 7.99981 0.0200195C8.45294 0.0200195 8.89669 0.0575195 9.32794 0.129395C9.61544 0.17627 9.83419 0.401269 9.89669 0.685645L10.2873 2.47002C10.7811 2.67314 11.2436 2.94189 11.6623 3.26377L13.4029 2.71064C13.6779 2.62314 13.9842 2.70127 14.1686 2.92314C14.4217 3.22939 14.6529 3.55439 14.8592 3.89814L15.0061 4.15127C15.1967 4.49502 15.3623 4.85127 15.4998 5.22314L15.4967 5.22627ZM7.99981 10.52C8.66285 10.52 9.29874 10.2566 9.76758 9.78779C10.2364 9.31895 10.4998 8.68306 10.4998 8.02002C10.4998 7.35698 10.2364 6.72109 9.76758 6.25225C9.29874 5.78341 8.66285 5.52002 7.99981 5.52002C7.33677 5.52002 6.70089 5.78341 6.23205 6.25225C5.7632 6.72109 5.49981 7.35698 5.49981 8.02002C5.49981 8.68306 5.7632 9.31895 6.23205 9.78779C6.70089 10.2566 7.33677 10.52 7.99981 10.52Z" fill="#6366F1"/>
</svg>
